# Blender 4.3.2
# www.blender.org
mtllib pillar.mtl
o Cube
v 1.000000 1.000000 -1.000000
v 1.000000 -1.000000 -1.000000
v 1.000000 1.000000 1.000000
v 1.000000 -1.000000 1.000000
v -1.000000 1.000000 -1.000000
v -1.000000 -1.000000 -1.000000
v -1.000000 1.000000 1.000000
v -1.000000 -1.000000 1.000000
v 1.000000 1.000000 -1.304232
v 1.000000 -1.000000 -1.304232
v -1.000000 1.000000 -1.304232
v -1.000000 -1.000000 -1.304232
v 1.000000 1.000000 1.296746
v 1.000000 -1.000000 1.296746
v -1.000000 1.000000 -0.703254
v -1.000000 1.000000 1.296746
v -1.000000 -1.000000 1.296746
v 1.360164 1.000000 -1.000000
v 1.360164 -1.000000 -1.000000
v 1.360164 1.000000 1.000000
v 1.360164 -1.000000 1.000000
v 1.360164 1.000000 -1.304232
v 1.360164 -1.000000 -1.304232
v 1.360164 1.000000 1.296746
v 1.360164 -1.000000 1.296746
v -1.376267 1.000000 -1.000000
v -1.376267 -1.000000 -1.000000
v -1.376267 1.000000 1.000000
v -1.376267 -1.000000 1.000000
v -1.376267 1.000000 -1.304232
v -1.376267 -1.000000 -1.304232
v -1.376267 1.000000 -0.703254
v -1.376267 1.000000 1.296746
v -1.376267 -1.000000 1.296746
v 1.000000 6.569314 -1.000000
v 1.000000 6.569314 1.000000
v -1.000000 6.569314 -1.000000
v -1.000000 6.569314 1.000000
v -1.000000 6.569314 -0.703254
v 1.000000 8.238886 -1.000000
v 1.000000 8.238886 1.000000
v -1.000000 8.238886 -1.000000
v -1.000000 8.238886 1.000000
v -1.000000 8.238886 -0.703254
v 1.392865 6.569314 -1.000000
v 1.392865 6.569314 1.000000
v -0.607135 6.569314 1.000000
v 1.392865 8.238886 -1.000000
v 1.392865 8.238886 1.000000
v 1.000000 6.569314 -1.425674
v -1.000000 6.569314 -1.425674
v 1.000000 8.238886 -1.425674
v -1.000000 8.238886 -1.425674
v 1.392865 6.569314 -1.425674
v 1.392865 8.238886 -1.425674
v -1.278100 6.569314 -1.000000
v -1.278100 6.569314 1.000000
v -1.278100 6.569314 -0.703254
v -1.278100 8.238886 -1.000000
v -1.278100 8.238886 1.000000
v -1.278100 8.238886 -0.703254
v -1.278100 6.569314 -1.425674
v -1.278100 8.238886 -1.425674
v 1.000000 6.569314 1.348406
v -1.000000 6.569314 1.348406
v 1.000000 8.238886 1.348406
v -1.000000 8.238886 1.348406
v 1.392865 6.569314 1.348406
v -0.607135 6.569314 1.348406
v 1.392865 8.238886 1.348406
v -1.278100 6.569314 1.348406
v -1.278100 8.238886 1.348406
vn -0.0000 -0.0000 -1.0000
vn -0.0000 -1.0000 -0.0000
vn -0.0000 1.0000 -0.0000
vn -0.0000 -0.0000 1.0000
vn 1.0000 -0.0000 -0.0000
vn -1.0000 -0.0000 -0.0000
vt 0.625000 0.500000
vt 0.875000 0.500000
vt 0.125000 0.500000
vt 0.625000 0.250000
vt 0.375000 0.250000
vt 0.375000 0.500000
vt 0.375000 0.750000
vt 0.125000 0.750000
vt 0.625000 0.750000
vt 0.625000 1.000000
vt 0.375000 1.000000
vt 0.875000 0.750000
vt 0.375000 0.000000
vt 0.625000 0.000000
vt 0.000000 0.000000
s 0
usemtl Material
f 1/1/1 5/2/1 37/2/1 35/1/1
f 12/3/2 6/3/2 27/3/2 31/3/2
f 11/4/1 12/5/1 31/5/1 30/4/1
f 6/3/2 2/6/2 4/7/2 8/8/2
f 10/6/1 9/1/1 22/1/1 23/6/1
f 5/2/3 11/2/3 30/2/3 26/2/3
f 12/5/1 11/4/1 9/1/1 10/6/1
f 2/6/2 6/3/2 12/3/2 10/6/2
f 5/2/3 1/1/3 9/1/3 11/2/3
f 14/7/2 4/7/2 21/7/2 25/7/2
f 14/7/4 13/9/4 16/10/4 17/11/4
f 8/8/2 17/8/2 34/8/2 29/8/2
f 8/8/2 4/7/2 14/7/2 17/8/2
f 3/9/3 7/12/3 16/12/3 13/9/3
f 9/1/3 1/1/3 18/1/3 22/1/3
f 19/6/5 18/1/5 20/9/5 21/7/5
f 18/1/5 19/6/5 23/6/5 22/1/5
f 21/7/5 20/9/5 24/9/5 25/7/5
f 4/7/2 2/6/2 19/6/2 21/7/2
f 3/9/3 13/9/3 24/9/3 20/9/3
f 1/1/3 3/9/3 20/9/3 18/1/3
f 2/6/2 10/6/2 23/6/2 19/6/2
f 13/9/4 14/7/4 25/7/4 24/9/4
f 26/2/3 28/12/3 33/12/3 32/2/3
f 29/13/6 28/14/6 26/4/6 27/5/6
f 27/5/6 26/4/6 30/4/6 31/5/6
f 28/14/6 29/13/6 34/13/6 33/14/6
f 15/15/3 5/15/3 26/15/3 32/15/3
f 16/15/3 15/15/3 32/15/3 33/15/3
f 6/3/2 8/8/2 29/8/2 27/3/2
f 17/11/4 16/10/4 33/10/4 34/11/4
f 35/1/2 37/2/2 51/2/2 50/1/2
f 7/12/4 3/9/4 36/9/4 38/12/4
f 5/15/6 15/15/6 39/15/6 37/15/6
f 5/15/6 7/15/6 38/15/6 37/15/6
f 3/9/5 1/1/5 35/1/5 36/9/5
f 40/1/3 42/2/3 43/12/3 41/9/3
f 40/1/3 48/1/3 55/1/3 52/1/3
f 37/15/2 39/15/2 58/15/2 56/15/2
f 44/15/3 42/15/3 59/15/3 61/15/3
f 41/9/3 43/12/3 67/12/3 66/9/3
f 46/9/5 45/1/5 48/1/5 49/9/5
f 36/9/2 35/1/2 45/1/2 46/9/2
f 57/15/2 38/15/2 65/15/2 71/15/2
f 38/15/2 47/15/2 69/15/2 65/15/2
f 40/1/3 41/9/3 49/9/3 48/1/3
f 50/1/1 51/2/1 53/2/1 52/1/1
f 50/1/1 52/1/1 55/1/1 54/1/1
f 48/1/5 45/1/5 54/1/5 55/1/5
f 45/1/2 35/1/2 50/1/2 54/1/2
f 42/2/3 53/2/3 63/2/3 59/2/3
f 42/2/3 40/1/3 52/1/3 53/2/3
f 56/15/6 58/15/6 61/15/6 59/15/6
f 56/15/6 57/15/6 60/15/6 59/15/6
f 56/15/6 59/15/6 63/15/6 62/15/6
f 51/2/2 37/2/2 56/2/2 62/2/2
f 39/15/4 44/15/4 61/15/4 58/15/4
f 53/2/1 51/2/1 62/2/1 63/2/1
f 43/12/3 42/2/3 59/2/3 60/12/3
f 37/15/2 38/15/2 57/15/2 56/15/2
f 47/15/2 46/15/2 68/15/2 69/15/2
f 65/12/4 64/9/4 66/9/4 67/12/4
f 66/9/4 64/9/4 68/9/4 70/9/4
f 64/9/3 65/12/3 69/12/3 68/9/3
f 65/12/4 67/12/4 72/12/4 71/12/4
f 49/9/3 41/9/3 66/9/3 70/9/3
f 60/15/6 57/15/6 71/15/6 72/15/6
f 43/12/3 60/12/3 72/12/3 67/12/3
f 46/9/5 49/9/5 70/9/5 68/9/5
